HIERARCHY
ROOT hip
{
  OFFSET 0 0 0
  CHANNELS 6 Xposition Yposition Zposition Zrotation Yrotation Xrotation
  JOINT abdomen
  {
    OFFSET 0 20.6881 -0.73152
    CHANNELS 3 Zrotation Xrotation Yrotation
    JOINT chest
    {
      OFFSET 0 11.7043 -0.48768
      CHANNELS 3 Zrotation Xrotation Yrotation
      JOINT neck
      {
        OFFSET 0 22.1894 -2.19456
        CHANNELS 3 Zrotation Xrotation Yrotation
        JOINT head
        {
          OFFSET -0.24384 7.07133 1.2192
          CHANNELS 3 Zrotation Xrotation Yrotation
          JOINT leftEye
          {
            OFFSET 4.14528 8.04674 8.04672
            CHANNELS 3 Zrotation Xrotation Yrotation
            End Site
            {
              OFFSET 1 0 0
            }
          }
          JOINT rightEye
          {
            OFFSET -3.6576 8.04674 8.04672
            CHANNELS 3 Zrotation Xrotation Yrotation
            End Site
            {
              OFFSET 1 0 0
            }
          }
        }
      }
      JOINT rCollar
      {
        OFFSET -2.68224 19.2634 -4.8768
        CHANNELS 3 Zrotation Xrotation Yrotation
        JOINT rShldr
        {
          OFFSET -8.77824 -1.95073 1.46304
          CHANNELS 3 Zrotation Xrotation Yrotation
          JOINT rForeArm
          {
            OFFSET -28.1742 -1.7115 0.48768
            CHANNELS 3 Zrotation Xrotation Yrotation
            JOINT rHand
            {
              OFFSET -22.5879 0.773209 7.07136
              CHANNELS 3 Zrotation Xrotation Yrotation
              JOINT rThumb1
              {
                OFFSET -1.2192 -0.487915 3.41376
                CHANNELS 3 Zrotation Xrotation Yrotation
                JOINT rThumb2
                {
                  OFFSET -3.37035 -0.52449 3.41376
                  CHANNELS 3 Zrotation Xrotation Yrotation
                  End Site
                  {
                    OFFSET -1.78271 -1.18214 1.43049
                  }
                }
              }
              JOINT rIndex1
              {
                OFFSET -7.75947 0.938293 5.60832
                CHANNELS 3 Zrotation Xrotation Yrotation
                JOINT rIndex2
                {
                  OFFSET -2.54057 -0.884171 1.56538
                  CHANNELS 3 Zrotation Xrotation Yrotation
                  End Site
                  {
                    OFFSET -1.62519 -0.234802 1.16502
                  }
                }
              }
              JOINT rMid1
              {
                OFFSET -8.24714 1.18213 3.41376
                CHANNELS 3 Zrotation Xrotation Yrotation
                JOINT rMid2
                {
                  OFFSET -3.10165 -0.590103 1.0647
                  CHANNELS 3 Zrotation Xrotation Yrotation
                  End Site
                  {
                    OFFSET -2.48547 -0.328903 0.83742
                  }
                }
              }
              JOINT rRing1
              {
                OFFSET -8.82822 0.546677 1.51678
                CHANNELS 3 Zrotation Xrotation Yrotation
                JOINT rRing2
                {
                  OFFSET -2.60934 -0.819778 -0.0198488
                  CHANNELS 3 Zrotation Xrotation Yrotation
                  End Site
                  {
                    OFFSET -2.33842 -0.294052 0.168128
                  }
                }
              }
              JOINT rPinky1
              {
                OFFSET -8.27202 -0.0477905 -0.4584
                CHANNELS 3 Zrotation Xrotation Yrotation
                JOINT rPinky2
                {
                  OFFSET -1.82734 -0.647385 -0.700984
                  CHANNELS 3 Zrotation Xrotation Yrotation
                  End Site
                  {
                    OFFSET -1.69225 -0.51767 -0.607171
                  }
                }
              }
            }
          }
        }
      }
      JOINT lCollar
      {
        OFFSET 2.68224 19.2634 -4.8768
        CHANNELS 3 Zrotation Xrotation Yrotation
        JOINT lShldr
        {
          OFFSET 8.77824 -1.95073 1.46304
          CHANNELS 3 Zrotation Xrotation Yrotation
          JOINT lForeArm
          {
            OFFSET 28.1742 -1.7115 0.48768
            CHANNELS 3 Zrotation Xrotation Yrotation
            JOINT lHand
            {
              OFFSET 22.5879 0.773209 7.07136
              CHANNELS 3 Zrotation Xrotation Yrotation
              JOINT lThumb1
              {
                OFFSET 1.2192 -0.487915 3.41376
                CHANNELS 3 Zrotation Xrotation Yrotation
                JOINT lThumb2
                {
                  OFFSET 3.37035 -0.52449 3.41376
                  CHANNELS 3 Zrotation Xrotation Yrotation
                  End Site
                  {
                    OFFSET 1.78271 -1.18214 1.43049
                  }
                }
              }
              JOINT lIndex1
              {
                OFFSET 7.75947 0.938293 5.60832
                CHANNELS 3 Zrotation Xrotation Yrotation
                JOINT lIndex2
                {
                  OFFSET 2.54057 -0.884171 1.56538
                  CHANNELS 3 Zrotation Xrotation Yrotation
                  End Site
                  {
                    OFFSET 1.62519 -0.234802 1.16502
                  }
                }
              }
              JOINT lMid1
              {
                OFFSET 8.24714 1.18213 3.41376
                CHANNELS 3 Zrotation Xrotation Yrotation
                JOINT lMid2
                {
                  OFFSET 3.10165 -0.590103 1.0647
                  CHANNELS 3 Zrotation Xrotation Yrotation
                  End Site
                  {
                    OFFSET 2.48547 -0.328903 0.83742
                  }
                }
              }
              JOINT lRing1
              {
                OFFSET 8.82822 0.546677 1.51678
                CHANNELS 3 Zrotation Xrotation Yrotation
                JOINT lRing2
                {
                  OFFSET 2.60934 -0.819778 -0.0198488
                  CHANNELS 3 Zrotation Xrotation Yrotation
                  End Site
                  {
                    OFFSET 2.33842 -0.294052 0.168128
                  }
                }
              }
              JOINT lPinky1
              {
                OFFSET 8.27202 -0.0477905 -0.4584
                CHANNELS 3 Zrotation Xrotation Yrotation
                JOINT lPinky2
                {
                  OFFSET 1.82734 -0.647385 -0.700984
                  CHANNELS 3 Zrotation Xrotation Yrotation
                  End Site
                  {
                    OFFSET 1.69225 -0.51767 -0.607171
                  }
                }
              }
            }
          }
        }
      }
    }
  }
  JOINT rButtock
  {
    OFFSET -8.77824 4.35084 1.2192
    CHANNELS 3 Zrotation Xrotation Yrotation
    JOINT rThigh
    {
      OFFSET 0 -1.70687 -2.19456
      CHANNELS 3 Zrotation Xrotation Yrotation
      JOINT rShin
      {
        OFFSET 0 -36.8199 0.73152
        CHANNELS 3 Zrotation Xrotation Yrotation
        JOINT rFoot
        {
          OFFSET 0.73152 -45.1104 -5.12064
          CHANNELS 3 Zrotation Xrotation Yrotation
          End Site
          {
            OFFSET -1.1221 -3.69964 12.103
          }
        }
      }
    }
  }
  JOINT lButtock
  {
    OFFSET 8.77824 4.35084 1.2192
    CHANNELS 3 Zrotation Xrotation Yrotation
    JOINT lThigh
    {
      OFFSET 0 -1.70687 -2.19456
      CHANNELS 3 Zrotation Xrotation Yrotation
      JOINT lShin
      {
        OFFSET 0 -36.8199 0.73152
        CHANNELS 3 Zrotation Xrotation Yrotation
        JOINT lFoot
        {
          OFFSET -0.73152 -45.1104 -5.12064
          CHANNELS 3 Zrotation Xrotation Yrotation
          End Site
          {
            OFFSET 1.1221 -3.69964 12.103
          }
        }
      }
    }
  }
}
MOTION
Frames:	9
Frame Time:	0.00833333
65.132 82.8017 -15.4348 -1.0898 -60.5591 31.2479 5.75019 29.191 -2.31882 -3.11843 -15.7582 -0.327871 8.5659 9.66054 9.99535 -40.9947 -52.5548 -0.28424 -0.0 0.0 0.0 -0.0 0.0 0.0 -3.57984e-13 -4.32726e-13 2.80982e-13 65.6254 1.09358 40.8763 -24.97 -21.0319 52.8431 -0.386212 17.3974 2.52389 -1.32071e-09 9.98055e-10 -1.20227e-09 -2.29774e-09 1.7381e-09 -2.05121e-09 -1.32071e-09 9.98058e-10 -1.20228e-09 7.73091 5.47488 0.417314 -1.32071e-09 9.98059e-10 -1.20227e-09 2.90554 0.965183 0.102902 -1.3207e-09 9.98059e-10 -1.20228e-09 10.2786 0.731801 0.0259123 -1.32071e-09 9.98059e-10 -1.20227e-09 2.22167 -0.733487 -0.20892 -3.58016e-13 -4.32683e-13 2.80762e-13 -76.863 3.15252 -27.4667 27.77 -29.3824 -66.2639 0.0156167 3.56501 -0.501684 -2.05308e-09 3.69853e-09 -3.02798e-10 -3.54816e-09 6.4281e-09 -5.11496e-10 -2.05308e-09 3.69853e-09 -3.02783e-10 -7.73091 5.47488 -0.417314 -2.05308e-09 3.69853e-09 -3.02794e-10 -2.90554 0.965183 -0.102902 -2.05308e-09 3.69852e-09 -3.02798e-10 -10.2786 0.731801 -0.0259123 -2.05307e-09 3.69853e-09 -3.02807e-10 -2.22167 -0.733487 0.20892 -2.03217e-16 0.0 -3.88251e-19 -13.7841 -64.7725 -21.4159 -0.463526 44.1099 0.722012 -2.9003 -9.45136 -9.32953 2.03217e-16 0.0 3.88251e-19 3.34921 -60.176 12.9291 0.230979 40.1211 -0.913377 0.360535 -9.25954 -1.37579
65.1777 82.7686 -15.4747 -0.9516 -60.4732 31.2191 5.8386 29.3255 -2.27642 -3.13379 -15.736 -0.309327 8.53465 9.63758 9.94361 -41.1913 -52.5519 -0.49974 -0.0 0.0 0.0 -0.0 0.0 0.0 -3.97947e-13 -7.78755e-14 4.29797e-13 65.5988 1.03789 41.1603 -24.9422 -20.9726 52.7452 -0.390079 17.4808 2.53678 -3.45813e-09 1.09521e-09 -3.40741e-09 -6.02237e-09 1.92063e-09 -5.82195e-09 -3.45813e-09 1.09521e-09 -3.40742e-09 7.73091 5.47488 0.417314 -3.45813e-09 1.09521e-09 -3.40741e-09 2.90554 0.965183 0.102902 -3.45813e-09 1.09521e-09 -3.40741e-09 10.2786 0.731801 0.0259123 -3.45814e-09 1.09522e-09 -3.4074e-09 2.22167 -0.733487 -0.20892 -3.97985e-13 -7.78349e-14 4.29594e-13 -76.9448 3.50644 -27.4791 27.7636 -29.3515 -66.2147 0.0165385 3.66927 -0.516395 -9.38828e-10 -3.92933e-09 -3.39723e-09 -1.63246e-09 -6.7317e-09 -5.85798e-09 -9.38835e-10 -3.92934e-09 -3.39721e-09 -7.73091 5.47488 -0.417314 -9.38828e-10 -3.92933e-09 -3.39722e-09 -2.90554 0.965183 -0.102902 -9.38833e-10 -3.92935e-09 -3.39723e-09 -10.2786 0.731801 -0.0259123 -9.38824e-10 -3.92933e-09 -3.39724e-09 -2.22167 -0.733487 0.20892 -2.03217e-16 0.0 -3.88251e-19 -14.0349 -64.9471 -21.6263 -0.466556 44.2352 0.725679 -2.92505 -9.50932 -9.38521 2.03217e-16 0.0 3.88251e-19 3.20904 -60.3624 12.7911 0.23234 40.1809 -0.914719 0.359241 -9.23112 -1.3833
65.2242 82.7355 -15.511 -0.8042 -60.3773 31.1796 5.92935 29.462 -2.24234 -3.15547 -15.7216 -0.293837 8.49212 9.62021 9.89147 -41.37 -52.5629 -0.710416 -0.0 0.0 0.0 -0.0 0.0 0.0 -4.26128e-13 9.2218e-14 5.02627e-13 65.5803 0.996599 41.4306 -24.9179 -20.9209 52.6601 -0.39423 17.57 2.55058 -4.67107e-09 1.1472e-09 -4.59539e-09 -8.13547e-09 2.01855e-09 -7.85182e-09 -4.67107e-09 1.14721e-09 -4.5954e-09 7.73091 5.47488 0.417314 -4.67107e-09 1.14721e-09 -4.59538e-09 2.90554 0.965183 0.102902 -4.67107e-09 1.14721e-09 -4.59538e-09 10.2786 0.731801 0.0259123 -4.67108e-09 1.14721e-09 -4.59537e-09 2.22167 -0.733487 -0.20892 -4.26189e-13 9.22543e-14 5.02428e-13 -77.0135 3.86331 -27.4693 27.7589 -29.3292 -66.1793 0.0174467 3.76821 -0.53036 -1.12e-10 -8.41989e-09 -5.17377e-09 -2.09451e-10 -1.44803e-08 -8.92791e-09 -1.12006e-10 -8.4199e-09 -5.17376e-09 -7.73091 5.47488 -0.417314 -1.11999e-10 -8.41989e-09 -5.17377e-09 -2.90554 0.965183 -0.102902 -1.12005e-10 -8.4199e-09 -5.17377e-09 -10.2786 0.731801 -0.0259123 -1.11997e-10 -8.41989e-09 -5.17379e-09 -2.22167 -0.733487 0.20892 -2.03217e-16 0.0 -3.88251e-19 -14.307 -65.1174 -21.8595 -0.469662 44.3624 0.729396 -2.94856 -9.56376 -9.43786 2.03217e-16 0.0 3.88251e-19 3.08004 -60.5406 12.6857 0.233602 40.2366 -0.916031 0.352312 -9.19969 -1.41852
65.2707 82.7025 -15.5451 -0.6444 -60.2797 31.1274 6.02204 29.6024 -2.22295 -3.18349 -15.7169 -0.283162 8.43407 9.61075 9.83865 -41.5217 -52.5968 -0.91513 -0.0 0.0 0.0 -0.0 0.0 0.0 -4.60609e-13 -1.31654e-14 4.89259e-13 65.5717 0.976092 41.6841 -24.8991 -20.8812 52.5947 -0.398733 17.6662 2.56547 -4.64578e-09 1.17231e-09 -4.42181e-09 -8.09039e-09 2.06165e-09 -7.55086e-09 -4.64578e-09 1.17231e-09 -4.42182e-09 7.73091 5.47488 0.417314 -4.64578e-09 1.17231e-09 -4.4218e-09 2.90554 0.965183 0.102902 -4.64578e-09 1.17231e-09 -4.4218e-09 10.2786 0.731801 0.0259123 -4.64579e-09 1.17231e-09 -4.42179e-09 2.22167 -0.733487 -0.20892 -4.60726e-13 -1.31364e-14 4.89042e-13 -77.0689 4.2237 -27.4299 27.757 -29.3196 -66.1641 0.0183191 3.86041 -0.543376 2.83961e-10 -8.3646e-09 -5.13068e-09 4.7443e-10 -1.4386e-08 -8.854e-09 2.83955e-10 -8.36461e-09 -5.13066e-09 -7.73091 5.47488 -0.417314 2.83962e-10 -8.3646e-09 -5.13067e-09 -2.90554 0.965183 -0.102902 2.83955e-10 -8.36461e-09 -5.13068e-09 -10.2786 0.731801 -0.0259123 2.83964e-10 -8.3646e-09 -5.13069e-09 -2.22167 -0.733487 0.20892 -2.03217e-16 0.0 -3.88251e-19 -14.6153 -65.2826 -22.1291 -0.472896 44.4932 0.733217 -2.97064 -9.61324 -9.48773 2.03217e-16 0.0 3.88251e-19 2.9595 -60.7079 12.6184 0.234712 40.2861 -0.917302 0.33851 -9.16444 -1.48799
65.3159 82.6694 -15.5775 -0.4765 -60.1857 31.0645 6.11605 29.7447 -2.21316 -3.21611 -15.7178 -0.275659 8.36416 9.60579 9.7852 -41.6532 -52.6491 -1.1164 -0.0 0.0 0.0 -0.0 0.0 0.0 -4.97017e-13 -2.6812e-13 4.26294e-13 65.5715 0.967874 41.9259 -24.8845 -20.8503 52.5438 -0.403595 17.7692 2.58144 -3.90913e-09 1.16645e-09 -3.44901e-09 -6.80528e-09 2.04629e-09 -5.88142e-09 -3.90912e-09 1.16645e-09 -3.44903e-09 7.73091 5.47488 0.417314 -3.90913e-09 1.16645e-09 -3.44901e-09 2.90554 0.965183 0.102902 -3.90912e-09 1.16645e-09 -3.44901e-09 10.2786 0.731801 0.0259123 -3.90914e-09 1.16645e-09 -3.44901e-09 2.22167 -0.733487 -0.20892 -4.97216e-13 -2.68102e-13 4.26045e-13 -77.1172 4.5836 -27.3732 27.7568 -29.3184 -66.1622 0.0191403 3.9459 -0.555448 5.15885e-10 -5.85952e-09 -4.06671e-09 8.77933e-10 -1.00661e-08 -7.01659e-09 5.15879e-10 -5.85953e-09 -4.06669e-09 -7.73091 5.47488 -0.417314 5.15886e-10 -5.85952e-09 -4.0667e-09 -2.90554 0.965183 -0.102902 5.15878e-10 -5.85953e-09 -4.06671e-09 -10.2786 0.731801 -0.0259123 5.15889e-10 -5.85952e-09 -4.06672e-09 -2.22167 -0.733487 0.20892 -2.03217e-16 0.0 -3.88251e-19 -14.9482 -65.4438 -22.4226 -0.476227 44.6267 0.737129 -2.99238 -9.65993 -9.53756 2.03217e-16 0.0 3.88251e-19 2.84526 -60.8673 12.5784 0.235705 40.331 -0.918531 0.319983 -9.12682 -1.5813
65.3579 82.6365 -15.6099 -0.3183 -60.0975 31.0071 6.21301 29.8863 -2.20257 -3.25458 -15.7236 -0.268593 8.28924 9.60269 9.73171 -41.7808 -52.7027 -1.31566 -0.0 0.0 0.0 -0.0 0.0 0.0 -4.9795e-13 -5.62956e-13 3.09259e-13 65.5758 0.963296 42.1591 -24.8708 -20.8214 52.4956 -0.408695 17.8765 2.59809 -2.77189e-09 1.09156e-09 -2.03013e-09 -4.82154e-09 1.90813e-09 -3.44918e-09 -2.77188e-09 1.09156e-09 -2.03015e-09 7.73091 5.47488 0.417314 -2.77189e-09 1.09156e-09 -2.03013e-09 2.90554 0.965183 0.102902 -2.77188e-09 1.09156e-09 -2.03014e-09 10.2786 0.731801 0.0259123 -2.7719e-09 1.09156e-09 -2.03013e-09 2.22167 -0.733487 -0.20892 -4.98222e-13 -5.62949e-13 3.08979e-13 -77.156 4.94553 -27.3071 27.757 -29.3195 -66.164 0.019941 4.02788 -0.567026 7.06405e-10 -2.50182e-09 -2.51174e-09 1.21146e-09 -4.27925e-09 -4.33181e-09 7.06399e-10 -2.50182e-09 -2.51173e-09 -7.73091 5.47488 -0.417314 7.06405e-10 -2.50182e-09 -2.51174e-09 -2.90554 0.965183 -0.102902 7.06397e-10 -2.50182e-09 -2.51175e-09 -10.2786 0.731801 -0.0259123 7.06409e-10 -2.50182e-09 -2.51176e-09 -2.22167 -0.733487 0.20892 -2.03217e-16 0.0 -3.88251e-19 -15.2827 -65.6021 -22.7199 -0.479568 44.7593 0.741026 -3.01333 -9.7055 -9.58472 2.03217e-16 0.0 3.88251e-19 2.74753 -61.0228 12.5635 0.236676 40.375 -0.919742 0.29812 -9.08755 -1.6915
65.3975 82.6036 -15.6429 -0.1718 -60.0177 30.9589 6.31442 30.0248 -2.18074 -3.30015 -15.7333 -0.259225 8.21619 9.59883 9.67878 -41.9204 -52.7407 -1.51403 -0.0 0.0 0.0 -0.0 0.0 0.0 -4.26008e-13 -7.87983e-13 1.33683e-13 65.5809 0.953842 42.3868 -24.8545 -20.7871 52.4386 -0.413908 17.9854 2.61502 -1.54485e-09 9.09591e-10 -5.183e-10 -2.68059e-09 1.58283e-09 -8.5982e-10 -1.54485e-09 9.09589e-10 -5.18316e-10 7.73091 5.47488 0.417314 -1.54485e-09 9.09588e-10 -5.18297e-10 2.90554 0.965183 0.102902 -1.54485e-09 9.09587e-10 -5.18308e-10 10.2786 0.731801 0.0259123 -1.54486e-09 9.09588e-10 -5.18306e-10 2.22167 -0.733487 -0.20892 -4.2631e-13 -7.87983e-13 1.33385e-13 -77.1828 5.3119 -27.2394 27.7566 -29.3171 -66.16 0.0207577 4.10954 -0.578561 9.78154e-10 1.11327e-10 -9.9566e-10 1.68541e-09 2.16252e-10 -1.71579e-09 9.78148e-10 1.11337e-10 -9.9565e-10 -7.73091 5.47488 -0.417314 9.78154e-10 1.11327e-10 -9.9566e-10 -2.90554 0.965183 -0.102902 9.78146e-10 1.11328e-10 -9.95672e-10 -10.2786 0.731801 -0.0259123 9.78158e-10 1.11329e-10 -9.95682e-10 -2.22167 -0.733487 0.20892 -2.03217e-16 0.0 -3.88251e-19 -15.5949 -65.7587 -23.0004 -0.482832 44.8878 0.7448 -3.03302 -9.75162 -9.62659 2.03217e-16 0.0 3.88251e-19 2.67647 -61.1785 12.5718 0.23772 40.4215 -0.920958 0.274288 -9.04736 -1.81165
65.4347 82.5703 -15.6771 -0.0407 -59.9402 30.9251 6.42544 30.1587 -2.14321 -3.3548 -15.7489 -0.246327 8.14501 9.59448 9.62503 -42.0783 -52.76 -1.71666 -0.0 0.0 0.0 -0.0 0.0 0.0 -2.09671e-13 -9.12936e-13 -1.73041e-13 65.5889 0.935681 42.609 -24.8345 -20.7452 52.3691 -0.419405 18.0997 2.6328 6.1075e-11 4.85205e-10 1.41046e-09 1.22138e-10 8.33021e-10 2.43963e-09 6.1085e-11 4.85203e-10 1.41044e-09 7.73091 5.47488 0.417314 6.10763e-11 4.85203e-10 1.41046e-09 2.90554 0.965183 0.102902 6.10831e-11 4.85202e-10 1.41045e-09 10.2786 0.731801 0.0259123 6.10678e-11 4.85202e-10 1.41045e-09 2.22167 -0.733487 -0.20892 -2.09932e-13 -9.12939e-13 -1.73341e-13 -77.1996 5.68087 -27.1745 27.7545 -29.3072 -66.1442 0.0216211 4.19417 -0.590518 1.46445e-09 1.72675e-09 6.87509e-10 2.53089e-09 2.97518e-09 1.18529e-09 1.46445e-09 1.72676e-09 6.87517e-10 -7.73091 5.47488 -0.417314 1.46445e-09 1.72675e-09 6.87509e-10 -2.90554 0.965183 -0.102902 1.46445e-09 1.72675e-09 6.87497e-10 -10.2786 0.731801 -0.0259123 1.46446e-09 1.72675e-09 6.87485e-10 -2.22167 -0.733487 0.20892 -2.03217e-16 0.0 -3.88251e-19 -15.8712 -65.9136 -23.2566 -0.485978 45.0105 0.74838 -3.05073 -9.79928 -9.65988 2.03217e-16 0.0 3.88251e-19 2.65257 -61.3363 12.6227 0.238918 40.4735 -0.922205 0.246268 -9.00572 -1.95246
65.4698 82.5382 -15.7134 0.0599 -59.8584 30.9183 6.54354 30.2897 -2.09603 -3.4173 -15.77 -0.231522 8.07267 9.59073 9.57064 -42.245 -52.7692 -1.92111 -0.0 0.0 0.0 -0.0 0.0 0.0 1.10597e-13 -9.96654e-13 -5.84722e-13 65.6007 0.913938 42.8242 -24.8126 -20.6995 52.2934 -0.425202 18.2192 2.65142 2.08766e-09 -1.1957e-10 3.80509e-09 3.65907e-09 -2.3359e-10 6.53405e-09 2.08767e-09 -1.19571e-10 3.80508e-09 7.73091 5.47488 0.417314 2.08766e-09 -1.19569e-10 3.80509e-09 2.90554 0.965183 0.102902 2.08767e-09 -1.1957e-10 3.80508e-09 10.2786 0.731801 0.0259123 2.08765e-09 -1.1957e-10 3.80509e-09 2.22167 -0.733487 -0.20892 1.10424e-13 -9.96659e-13 -5.85014e-13 -77.2069 6.05203 -27.1073 27.7516 -29.2938 -66.1229 0.0225048 4.27926 -0.602542 2.06636e-09 3.13869e-09 2.70461e-09 3.57735e-09 5.3719e-09 4.66066e-09 2.06635e-09 3.1387e-09 2.70461e-09 -7.73091 5.47488 -0.417314 2.06636e-09 3.13869e-09 2.70461e-09 -2.90554 0.965183 -0.102902 2.06635e-09 3.13869e-09 2.7046e-09 -10.2786 0.731801 -0.0259123 2.06636e-09 3.13869e-09 2.70458e-09 -2.22167 -0.733487 0.20892 -2.03217e-16 0.0 -3.88251e-19 -16.1261 -66.0663 -23.4995 -0.489056 45.1294 0.751837 -3.06688 -9.84741 -9.68686 2.03217e-16 0.0 3.88251e-19 2.66552 -61.4936 12.7116 0.240201 40.5284 -0.923465 0.214279 -8.96246 -2.11342
